<svg xmlns="http://www.w3.org/2000/svg" version="1.1" xmlns:xlink="http://www.w3.org/1999/xlink" xmlns:svgjs="http://svgjs.dev/svgjs" width="256" height="256"><svg width="256" height="256" viewBox="0 0 256 256" fill="none" xmlns="http://www.w3.org/2000/svg">
<mask id="SvgjsMask1007" fill="white">
<path fill-rule="evenodd" clip-rule="evenodd" d="M16 0H256V240L240 256H0V16L16 0Z"></path>
</mask>
<path fill-rule="evenodd" clip-rule="evenodd" d="M16 0H256V240L240 256H0V16L16 0Z" fill="#171717"></path>
<path d="M256 0H264V-8H256V0ZM16 0V-8H12.6863L10.3431 -5.65685L16 0ZM256 240L261.657 245.657L264 243.314V240H256ZM240 256V264H243.314L245.657 261.657L240 256ZM0 256H-8V264H0V256ZM0 16L-5.65685 10.3431L-8 12.6863V16H0ZM256 -8H16V8H256V-8ZM264 240V0H248V240H264ZM245.657 261.657L261.657 245.657L250.343 234.343L234.343 250.343L245.657 261.657ZM0 264H240V248H0V264ZM-8 16V256H8V16H-8ZM10.3431 -5.65685L-5.65685 10.3431L5.65685 21.6569L21.6569 5.65685L10.3431 -5.65685Z" fill="white" mask="url(#path-1-inside-1_0_1)"></path>
<path fill-rule="evenodd" clip-rule="evenodd" d="M256 235.784L211.075 220.809L164.653 97.0169L256 6.34052V0L251.032 0L159.003 91.354L35.1912 44.9247L20.2165 0L16.0004 0L15.9998 0.000200925L12.8378 3.1622L27.8994 48.3475L0 229.693V256H26.3058L207.652 228.101L252.838 243.162L256 240V235.784ZM156.893 99.1069L202.526 220.795L4.78279 251.217L35.2048 53.4739L156.893 99.1069Z" fill="white"></path>
<path d="M63.6538 222.364L34.0571 192.768L41.841 184.984L52.9737 188.876L94.7891 147.06L90.8972 135.928L98.681 128.144L128.278 157.741L120.494 165.524L109.452 161.723L67.6362 203.538L71.4376 214.581L63.6538 222.364Z" fill="white"></path>
</svg><style>@media (prefers-color-scheme: light) { :root { filter: none; } }
@media (prefers-color-scheme: dark) { :root { filter: none; } }
</style></svg>